<svg xmlns="http://www.w3.org/2000/svg" xmlns:xlink="http://www.w3.org/1999/xlink" version="1.1" id="Layer_1" x="0px" y="0px" viewBox="0 0 500 500" style="enable-background:new 0 0 500 500;" xml:space="preserve">
<style type="text/css">
	.st0{fill:#010101;}
	.st1{fill:#8FFF8F;}
	.st2{fill:none;stroke:#000000;stroke-width:2;stroke-linecap:round;stroke-miterlimit:10;}
</style>
<g>
	<path class="st0" d="M467.1,490.3c-1.2,0-2.3-0.2-3.4-0.6c-32.4-12.3-73.5-27.1-89.4-31.6l-4.2-1.2l-3.8,2.1   c-35.9,20-74.8,30.1-115.7,30.1c-9.8,0-19.7-0.6-29.6-1.8c-2.8-0.3-5.6-0.7-8.3-1.2C84.6,466.1-3.6,349.3,12.1,220.5   c7.7-63.5,39.8-120.3,90.1-159.7c42.6-33.4,93.5-51,147.2-51c9.8,0,19.7,0.6,29.5,1.8c64,7.8,120.9,39.8,160.2,90.1   c39.2,50.2,56.5,113,48.7,176.8c-4,32.7-28.6,83.8-36,98.6l-1.8,3.6l26.4,97.5c1,3.5-0.1,7.2-2.8,9.7   C471.8,489.4,469.5,490.3,467.1,490.3z M249.6,29.1c-49.4,0-96.2,16.2-135.4,46.9c-46.3,36.3-75.8,88.4-82.9,146.9   c-14.6,120.4,71.5,230.4,192.1,245.3c9,1.1,18.2,1.7,27.2,1.7c39.3,0,78-10.7,112.1-31c1.7-1,3.6-1.5,5.8-1.5c1.3,0,2.4,0.2,3,0.3   c4.3,0.7,18.1,4.2,62.4,20.3l19,6.9L430.4,382c-0.6-2.4-0.4-4.9,0.8-7c0.3-0.6,33.1-63.1,37.5-98.9   c14.6-120.2-71.5-230.3-192.1-245.3C267.6,29.6,258.5,29.1,249.6,29.1z"/>
	<g>
		<path class="st0" d="M252.8,373.7c-6.6,0-12-5.2-12-11.6s5.4-11.6,12-11.6c6.6,0,12,5.2,12,11.6S259.4,373.7,252.8,373.7z"/>
		<path class="st0" d="M252.8,313.9c-4.1,0-7.9-3-9.5-5.9c-0.5-0.9-1.5-3.8-0.7-12c1.8-18.6,12.7-34.3,28.4-40.8    c10.4-4.3,17.9-13,20-15.6c7-8.7,10.9-19.6,10.9-30.8c0-27.1-22-49.1-49.1-49.1s-49.1,23.2-49.1,49.1c0,7.1-3.5,10.6-10.6,10.6    c-1.8,0-10.6-0.5-10.6-10.2c0-11.9,2.2-19.4,4.9-26.6c9.5-24.6,34.7-42.9,65.3-42.9c39.6,0,70.6,30.4,70.6,69.1    c0,27.4-16.1,52.5-40.9,64.1l-0.9,0.4c-9.7,6.5-15.3,14.3-17.6,24.1c-0.3,1.5-0.6,3.5-0.9,5.5c-0.2,1.4-0.4,3.1-0.5,3.7    C261.5,310.1,257.3,313.9,252.8,313.9z"/>
	</g>
</g>
</svg>