<svg xmlns="http://www.w3.org/2000/svg" xmlns:xlink="http://www.w3.org/1999/xlink" version="1.1" id="Layer_1" x="0px" y="0px" viewBox="0 0 500 500" style="enable-background:new 0 0 500 500;" xml:space="preserve">
<style type="text/css">
	.st0{fill:#010101;}
	.st1{fill:#8FFF8F;}
	.st2{fill:none;stroke:#000000;stroke-width:2;stroke-linecap:round;stroke-miterlimit:10;}
</style>
<g>
	<g>
		<path d="M250,488.9C118.3,488.9,11.1,381.7,11.1,250S118.3,11.1,250,11.1S488.9,118.3,488.9,250S381.7,488.9,250,488.9z M250,28.6    C127.9,28.6,28.6,127.9,28.6,250S127.9,471.4,250,471.4S471.4,372.1,471.4,250S372.1,28.6,250,28.6z"/>
	</g>
	<path d="M378,169.2l-44.5-44.5c-2.7-2.7-7.2-2.7-9.9,0c-2.7,2.7-2.7,7.2,0,9.9l38,38c0.9,0.9,0.9,2.3,0,3.1l-36.4,36.4   c-0.9,0.9-2.3,0.9-3.1,0l-13.3-13.3c-2.7-2.7-7.2-2.7-9.9,0c-2.7,2.7-2.7,7.2,0,9.9l13.3,13.3c0.9,0.9,0.9,2.3,0,3.1l-36.4,36.4   c-0.9,0.9-2.3,0.9-3.1,0l-38-38c-2.7-2.7-7.2-2.7-9.9,0c-2.7,2.7-2.7,7.2,0,9.9l38,38c0.9,0.9,0.9,2.3,0,3.1l-36.4,36.4   c-0.9,0.9-2.3,0.9-3.1,0l-13.3-13.3c-2.7-2.7-7.2-2.7-9.9,0c-2.7,2.7-2.7,7.2,0,9.9l13.3,13.3c0.9,0.9,0.9,2.3,0,3.1l-36.4,36.4   c-0.9,0.9-2.3,0.9-3.1,0l-38-38c-2.7-2.7-7.2-2.7-9.9,0c-2.7,2.7-2.7,7.2,0,9.9l44.5,44.5c2.7,2.7,7.2,2.7,9.9,0l198-198   C380.7,176.4,380.7,171.9,378,169.2z"/>
</g>
</svg>